<svg width="181" height="40" viewBox="0 0 181 40" fill="none" xmlns="http://www.w3.org/2000/svg">
<g id="Logo/Horizontal/Color 40" clip-path="url(#clip0_0_1)">
<g id="Mark" clip-path="url(#clip1_0_1)">
<path id="Vector" d="M0.0380859 4.30887L8.999 0.0381316V39.6187L0.0380859 35.4242V4.30887Z" fill="#0D1C5A"/>
<path id="Vector_2" d="M11.554 29.7426L23.9848 24.7931L32.9458 28.7893V32.2212L11.554 40V29.7426Z" fill="#0D1C5A"/>
<path id="Vector_3" d="M11.554 0L27.8743 7.74071V17.2736L11.554 9.45662V0Z" fill="#203DA4"/>
<path id="Vector_4" d="M11.554 12.9647L32.9458 23.3746V28.7893L11.554 19.2564V12.9647Z" fill="#203DA4"/>
</g>
<g id="Wordmark" clip-path="url(#clip2_0_1)">
<g id="Group">
<path id="Vector_5" d="M122.143 10.2198C121.869 10.2198 121.539 10.2747 121.319 10.3297C120.88 10.3846 120 10.7143 119.506 10.989C119.341 11.0989 119.121 11.2088 119.011 11.2637C118.792 11.3736 117.748 12.3626 117.638 12.5824C117.583 12.6374 117.473 12.8571 117.363 12.967C116.429 14.3407 116.319 16.9231 117.198 18.3516C117.473 18.8462 118.022 19.4506 118.407 19.7253C119.066 20.2198 120.33 20.7692 121.154 20.8791C121.429 20.9341 121.869 21.044 122.143 21.0989C122.363 21.1538 122.693 21.2088 122.803 21.2088C122.913 21.2088 123.077 21.2637 123.187 21.2637C123.297 21.3187 123.627 21.4286 123.957 21.4286C126.539 21.8681 127.638 22.5824 127.748 24.011C127.858 26.0989 125.88 27.3626 123.132 26.8681C122.088 26.7033 121.319 26.3187 120.77 25.6593C120.44 25.3297 120 24.5055 119.891 24.0659C119.836 23.6813 119.891 23.6813 118.187 23.6813C116.374 23.6813 116.484 23.6264 116.539 24.2857C116.649 25.4396 117.363 26.9231 118.352 27.9121C119.066 28.6264 120.275 29.2857 121.154 29.5055C121.374 29.5055 121.649 29.6154 121.814 29.6703C122.858 29.9451 125.825 29.8901 126.759 29.5604C126.924 29.5055 127.143 29.4506 127.198 29.4506C127.473 29.4506 128.627 28.8462 129.286 28.4066C130.33 27.5824 131.044 26.2637 131.154 24.7253C131.319 22.9121 130.989 21.8681 130.055 20.8242C129.176 19.8352 128.022 19.2308 126.154 18.7912C125.825 18.7363 125.44 18.6264 125.33 18.5714C125.22 18.5714 124.891 18.5165 124.671 18.4615C124.396 18.4066 124.121 18.3516 124.011 18.2967C123.902 18.2967 123.572 18.1868 123.297 18.1868C122.748 18.0769 121.924 17.8571 121.704 17.6923C121.594 17.6923 121.429 17.5824 121.319 17.5824C121.209 17.5275 120.935 17.3626 120.66 17.0879C119.946 16.4286 119.781 15.7692 120.11 14.7802C120.275 14.3956 120.33 14.2857 120.715 13.9011C120.935 13.6813 121.099 13.5165 121.154 13.5165C121.209 13.5165 121.319 13.4615 121.429 13.4066C122.528 12.8571 124.176 12.8571 125.44 13.4066C126.264 13.7912 127.198 14.7253 127.363 15.5495C127.473 16.044 127.363 15.989 129.231 16.044H130.825L130.88 15.8791C130.935 15.5495 130.66 14.5055 130.165 13.6264C129.671 12.5275 128.572 11.4835 127.528 10.989C127.418 10.9341 127.253 10.8791 127.198 10.8242C126.044 10.2747 123.682 9.94506 122.143 10.2198ZM45.6598 10.6593C45.44 10.6593 45.2752 10.7143 45.2202 10.7692C45.1104 10.8242 45.1104 11.3187 45.1104 20.1099V29.3956L45.2752 29.5055C45.3851 29.6154 45.44 29.6154 50.6598 29.6154C53.8466 29.6154 55.9895 29.6154 56.1543 29.5604C56.2642 29.5055 56.5389 29.5055 56.8136 29.4506C57.418 29.3956 58.462 29.011 58.9565 28.6813C59.0115 28.6264 59.1763 28.5165 59.3411 28.4615C60.1653 27.9121 60.8246 26.9231 61.2093 25.7143C61.3741 25.3297 61.429 23.9011 61.3191 23.1868C61.2642 22.6923 60.9345 21.8132 60.7697 21.5934C60.7147 21.5385 60.6598 21.4835 60.6598 21.4286C60.6598 21.3736 60.3851 21.0989 60.1104 20.7692C59.506 20.2198 59.0664 19.9451 58.5169 19.7802C57.9125 19.6154 57.8576 19.3956 58.4071 19.1758C58.5719 19.1209 58.7917 19.011 58.8466 19.011C58.9016 18.956 58.9565 18.9011 59.0115 18.9011C59.0664 18.9011 59.8356 18.1319 60.0005 17.8571C60.8796 16.4835 60.9895 14.5055 60.3301 13.1319C59.7807 12.0879 58.6818 11.2088 57.6928 10.989C57.5279 10.9341 57.3631 10.8791 57.3082 10.8791C57.1433 10.7143 56.7038 10.7143 51.429 10.6593C48.4071 10.6593 45.8246 10.6593 45.6598 10.6593ZM55.3301 13.6813C55.8796 13.7363 55.9345 13.7363 56.3191 13.9011C56.5389 14.011 56.7038 14.1758 56.7038 14.1758C56.7038 14.1758 56.8136 14.2857 56.9235 14.4506C57.1983 14.7253 57.3631 15.1648 57.3082 15.8242C57.3082 16.8681 56.9235 17.5824 56.0444 18.022L55.6598 18.1868L52.1983 18.2418C49.1763 18.2418 48.7367 18.2418 48.6268 18.1868L48.5169 18.0769V15.9341V13.7912L48.6268 13.7363C48.7917 13.6813 53.3521 13.6264 55.3301 13.6813ZM55.7697 21.0989C56.1543 21.2088 56.484 21.3187 56.5939 21.3736C56.6488 21.4286 56.8136 21.4835 56.9235 21.5385C57.1983 21.6484 57.5829 22.0879 57.8027 22.5824L57.9675 22.967V23.7912C57.9675 24.6154 57.9675 24.6703 57.8027 25.0549C57.473 25.8242 56.7587 26.3736 55.8246 26.5934C55.3301 26.7582 48.7917 26.7582 48.6268 26.6484C48.5719 26.5385 48.5169 26.4286 48.5169 23.956C48.5169 21.1538 48.5169 21.0989 48.6818 21.044C48.7917 21.044 50.2202 20.989 51.9785 20.989C55.1104 20.989 55.1653 20.989 55.7697 21.0989ZM64.6708 10.6593C63.6268 10.6593 63.2972 10.6593 63.2422 10.7143C63.1873 10.7692 63.1873 13.5165 63.1873 20.1099C63.1873 29.0659 63.1873 29.3956 63.2422 29.5055C63.3521 29.6154 63.4071 29.6154 69.8906 29.6154C75.9895 29.6154 76.3741 29.6154 76.484 29.5055C76.6488 29.3956 76.7038 26.8132 76.5389 26.6484C76.429 26.5934 76.0444 26.5934 71.7038 26.5934C69.1213 26.5934 66.9235 26.5934 66.8136 26.5385C66.484 26.4835 66.484 27.033 66.484 18.5165C66.484 12.3077 66.484 10.7692 66.429 10.7143C66.3191 10.6593 66.1543 10.6044 64.6708 10.6593ZM131.759 10.7143L131.594 10.8791V12.0879C131.594 13.2967 131.594 13.3516 131.704 13.4066C131.759 13.4615 132.803 13.4615 134.616 13.4615C137.308 13.4615 137.473 13.4615 137.528 13.5714C137.638 13.6813 137.638 14.2857 137.638 21.5385V29.3956L137.748 29.5055C137.858 29.6154 138.022 29.6154 139.341 29.6154H140.825L140.88 29.4506C140.989 29.3407 140.989 28.7912 140.989 21.4835V13.6264L141.099 13.5714C141.209 13.4615 141.539 13.4615 144.011 13.4615C146.759 13.4615 146.814 13.4615 146.924 13.3516C147.088 13.1868 147.088 10.8791 146.924 10.7143C146.814 10.6593 145.715 10.6593 139.396 10.6593C135.385 10.6593 131.978 10.6593 131.978 10.6044C131.924 10.6044 131.814 10.6593 131.759 10.7143ZM77.9125 10.7692L77.8027 10.8242V17.6923L77.8576 24.5055L77.9675 24.8901C78.0224 25.1099 78.1323 25.4396 78.1873 25.6044C78.2972 26.0989 78.6818 26.8132 78.9565 27.1978C79.0664 27.3626 79.1763 27.5275 79.1763 27.5824C79.1763 27.6923 80.2752 28.6264 80.8796 28.956C81.3741 29.2308 82.5829 29.6703 83.2972 29.7802C84.451 29.9451 86.6488 29.8352 87.418 29.5604C87.5279 29.5055 87.6928 29.4506 87.7477 29.4506C87.8576 29.4506 87.9675 29.3956 88.0224 29.3956C88.0774 29.3407 88.3521 29.1758 88.5719 29.1209C89.3411 28.7363 90.1653 27.967 90.7147 27.1978C91.0444 26.7033 91.429 25.7143 91.484 25.3846C91.5389 25.2747 91.5939 24.9451 91.6488 24.7253C91.8136 24.1758 91.8136 10.9341 91.6488 10.7692C91.5389 10.6044 88.7367 10.6044 88.5719 10.7692C88.462 10.8242 88.4071 10.8791 88.4071 15.989C88.4071 23.6264 88.4071 23.7363 88.2422 24.2857C87.6928 25.989 86.8136 26.7033 85.1104 26.8681C83.4071 26.978 82.1433 26.1538 81.484 24.6154C81.0994 23.6264 81.1543 24.1758 81.0994 17.1429V10.7692L80.9345 10.7143C80.7147 10.6044 78.0774 10.6593 77.9125 10.7692ZM94.8356 10.7692L94.7257 10.8242V20.1099C94.7257 28.6264 94.7257 29.4506 94.8356 29.5055C94.9455 29.6703 107.913 29.6703 108.022 29.5055C108.077 29.4506 108.077 28.8462 108.077 28.022C108.077 26.7582 108.077 26.6484 107.967 26.5385C107.913 26.4286 107.803 26.4286 103.242 26.4286C100.66 26.4286 98.462 26.4286 98.4071 26.4286C98.0774 26.4286 98.0774 26.4835 98.0774 23.7912V21.3187L98.1873 21.2637C98.2972 21.1538 98.7917 21.1538 102.693 21.1538C106.209 21.1538 107.088 21.1538 107.143 21.0989C107.253 20.989 107.253 18.4066 107.088 18.2967C107.033 18.1868 106.869 18.1868 102.693 18.1868C99.3411 18.1868 98.3521 18.1868 98.2422 18.1319L98.1323 18.022L98.0774 15.9341C98.0774 14.0659 98.0774 13.8462 98.1873 13.7912C98.2422 13.7363 99.3411 13.7363 103.077 13.7363C108.297 13.7363 108.077 13.7363 108.077 13.4615C108.077 12.5824 108.077 10.8242 108.022 10.7692C107.967 10.6044 95.0554 10.6044 94.8356 10.7692ZM151.814 10.7692C151.759 10.8791 151.649 11.0989 151.539 11.3187C151.484 11.5385 151.374 11.8132 151.374 11.8681C151.264 12.0879 151.099 12.4725 151.044 12.7473C150.989 12.8571 150.88 13.1319 150.77 13.4066C150.66 13.6813 150.495 14.2308 150.33 14.6703C149.891 15.8242 149.836 15.989 149.781 16.2088C149.726 16.3187 149.671 16.4286 149.671 16.4835C149.671 16.5385 149.616 16.6484 149.561 16.7582C149.506 16.9231 149.396 17.2527 149.286 17.5275C149.176 17.8571 148.957 18.4066 148.792 18.7912C148.682 19.2308 148.407 20 148.187 20.5495C147.967 21.1538 147.748 21.8132 147.638 22.033C147.528 22.3077 147.363 22.6923 147.308 22.967C146.978 23.9011 146.869 24.1758 146.704 24.6703C146.484 25.1648 146.264 25.7692 146.099 26.3187C145.989 26.6484 145.66 27.4176 145.495 27.967C145.385 28.2418 145.275 28.5165 145.22 28.6264C145.22 28.7363 145.165 28.9011 145.11 29.011C145 29.1758 144.946 29.3956 145.055 29.5055C145.11 29.6703 148.407 29.6703 148.517 29.5055C148.627 29.3956 148.957 28.7363 148.957 28.5165C149.011 28.4615 149.066 28.2418 149.121 28.022C149.341 27.4725 149.561 26.8132 149.671 26.4835C149.671 26.3187 149.781 26.1538 149.781 26.0989C149.781 26.0989 149.891 25.8791 149.946 25.6593C150.11 25 150.055 25 151.154 25C152.748 24.8901 157.308 24.9451 157.473 25.0549C157.583 25.1099 157.748 25.4396 157.858 25.8791C158.022 26.3187 158.462 27.6374 158.572 27.9121C158.627 28.022 158.682 28.1319 158.682 28.1868C158.682 28.1868 158.737 28.3516 158.792 28.5165C158.847 28.6264 158.957 28.9011 159.011 29.0659C159.176 29.6154 159.121 29.6154 160.989 29.6154C162.967 29.6154 162.913 29.6703 162.583 28.7912C162.473 28.5714 162.363 28.2967 162.363 28.1319C162.308 28.022 162.198 27.8022 162.143 27.5824C162.033 27.3626 161.978 27.1978 161.978 27.1429C161.978 27.0879 161.924 26.978 161.924 26.9231C161.869 26.8132 161.759 26.5934 161.704 26.4286C161.649 26.2637 161.539 25.989 161.484 25.8791C161.429 25.7692 161.319 25.3846 161.209 25.0549C160.88 24.1209 160.165 22.1429 159.836 21.3187C159.506 20.3297 159.396 20.0549 159.231 19.6154C159.011 18.956 158.792 18.3516 158.627 17.9121C158.517 17.7473 158.352 17.3077 158.242 16.9231C158.132 16.5934 157.913 16.044 157.803 15.7692C157.693 15.4945 157.583 15.1648 157.583 15.0549C157.528 14.9451 157.473 14.7802 157.418 14.6154C157.363 14.5055 157.143 13.9011 156.924 13.2418C156.649 12.5824 156.429 11.9231 156.319 11.7582C156.264 11.5934 156.154 11.3187 156.099 11.1538C155.989 10.6044 156.099 10.6593 153.902 10.6593H151.924L151.814 10.7692ZM154.011 14.5604C154.066 14.6154 154.176 14.8901 154.231 15.1648C154.506 15.9341 154.891 16.9231 155.055 17.4176C155.11 17.6923 155.22 17.967 155.275 18.0769C155.385 18.2967 155.495 18.6813 155.66 19.2857C155.715 19.3956 155.825 19.7802 155.935 20.0549C156.044 20.3846 156.209 20.7692 156.264 20.9341C156.264 21.0989 156.374 21.3187 156.429 21.3736C156.539 21.5934 156.594 21.8681 156.484 21.978C156.429 22.033 155.66 22.033 153.902 22.0879C150.825 22.0879 151.044 22.1978 151.484 20.989C151.594 20.6044 151.759 20.1648 151.814 19.9451C151.869 19.7802 151.924 19.6154 151.978 19.5055C152.033 19.4506 152.088 19.2857 152.088 19.1758C152.253 18.7912 153.132 16.2637 153.242 15.8791C153.352 15.6593 153.462 15.2747 153.572 15C153.737 14.5055 153.847 14.3956 154.011 14.5604ZM164.726 10.7692C164.671 10.8791 164.616 11.1538 164.616 20.1099V29.3407L164.726 29.5055L164.891 29.6154H166.319C167.638 29.6154 167.748 29.6154 167.858 29.5055C167.967 29.3956 167.967 29.2857 167.967 26.2637C167.967 23.1868 167.967 23.1868 168.077 23.022L168.187 22.9121H171.209C174.506 22.9121 174.561 22.9121 175.33 23.2967C175.88 23.5714 176.209 24.2308 176.319 25.5495C176.374 26.6484 176.539 28.1868 176.594 28.5165C176.649 28.7363 176.704 29.011 176.759 29.1209C176.814 29.6154 176.814 29.6154 178.572 29.6154C180.33 29.6154 180.275 29.6154 180.165 29.0659C180 28.022 179.891 27.4725 179.836 26.9231C179.506 23.8462 179.506 23.4615 179.231 22.9121C178.902 22.0879 178.517 21.7033 177.803 21.4835C177.033 21.2637 177.033 21.1538 177.748 20.8242C178.902 20.2747 179.671 19.1209 179.946 17.5275C180.11 16.3187 180.11 15.8242 179.836 14.3407C179.671 13.3516 178.682 11.978 177.748 11.5385C177.363 11.3187 176.704 11.044 176.154 10.8791C175.495 10.7143 174.506 10.6593 169.561 10.6593H164.836L164.726 10.7692ZM172.693 13.6813H174.671L175.11 13.9011C176.539 14.6154 177.033 16.2088 176.429 18.0769C176.209 18.9011 175.715 19.3956 174.891 19.7802C174.506 19.9451 173.737 20 170.88 20C168.297 20 168.242 19.9451 168.077 19.8352L167.967 19.7253V16.8132C167.967 14.7802 167.967 13.7912 168.022 13.7363C168.132 13.6813 168.242 13.6264 169.561 13.6813C170.22 13.6813 171.594 13.6813 172.693 13.6813Z" fill="#211F20"/>
</g>
</g>
</g>
<defs>
<clipPath id="clip0_0_1">
<rect width="180.33" height="40" fill="white"/>
</clipPath>
<clipPath id="clip1_0_1">
<rect width="32.9457" height="40" fill="white"/>
</clipPath>
<clipPath id="clip2_0_1">
<rect width="135.385" height="20" fill="white" transform="translate(44.9456 10)"/>
</clipPath>
</defs>
</svg>
